
        <svg xmlns="http://www.w3.org/2000/svg" xmlns:xlink="http://www.w3.org/1999/xlink" version="1.1" width="3182.370820668693" 
        height="1179.711246200608" viewBox="0 0 3182.370820668693 1179.711246200608">
			
			<g transform="scale(9.118541033434651) translate(10, 10)">
				<defs id="SvgjsDefs1126"></defs><g id="SvgjsG1127" featureKey="symbolGroupContainer" transform="matrix(1.09375,0,0,1.09375,0,0)" fill="#646ecb"><path xmlns="http://www.w3.org/2000/svg" d="M0 0h100v100H0z"></path></g><g id="SvgjsG1128" featureKey="monogramFeature-0" transform="matrix(1.4957263981924205,0,0,1.4957263981924205,17.217949412879005,-10.987179194577259)" fill="#ffffff"><path d="M10.2 48.18 l-8.34 0 l2.22 -8.34 l8.34 0 l2.76 0 l22.2 0 l0.72 -2.76 l-2.76 0 l-19.44 0 l-11.1 0 l2.28 -8.34 l11.1 0 l19.44 0 l11.04 0 l-5.22 19.44 l-8.28 0 l5.28 11.1 l-9.96 0 l-5.34 -11.1 l-7.5 0 l-7.44 0 z"></path></g><g id="SvgjsG1129" featureKey="nameFeature-0" transform="matrix(1.085315222665494,0,0,1.085315222665494,125.0357762696595,26.21824422904629)" fill="#111111"><path d="M18.555 40 l-7.3438 -12.422 l-1.6992 0 l0 12.422 l-5.8594 0 l0 -28.223 l10.234 0 c6.3867 0 9.082 3.7695 9.082 8.4375 c0 3.7891 -2.1484 6.25 -5.9766 7.0703 l8.4961 12.715 l-6.9336 0 z M9.5117 16.641 l0 6.7383 l3.457 0 c3.125 0 4.3945 -1.3281 4.3945 -3.3594 c0 -2.0117 -1.2695 -3.3789 -4.3945 -3.3789 l-3.457 0 z M54.12103125 40 l-2.0508 -5.8203 l-11.855 0 l-2.0508 5.8203 l-5.9961 0 l10.391 -28.223 l7.168 0 l10.391 28.223 l-5.9961 0 z M41.934031250000004 29.277 l8.418 0 l-4.1992 -11.973 z M90.97634375 11.777000000000001 l-9.2773 14.707 l0 13.516 l-5.8789 0 l0 -13.379 l-9.3359 -14.844 l6.4844 0 l5.7617 9.6094 l5.7813 -9.6094 l6.4648 0 z M116.75828125 11.777000000000001 l0 5.1563 l-6.6992 0 l0 23.066 l-5.8008 0 l0 -23.066 l-6.7383 0 l0 -5.1563 l19.238 0 z M144.43328125 11.777000000000001 l5.8594 0 l0 28.223 l-5.8594 0 l0 -11.602 l-11.934 0 l0 11.602 l-5.8594 0 l0 -28.223 l5.8594 0 l0 11.523 l11.934 0 l0 -11.523 z M181.93353125 40 l-2.0508 -5.8203 l-11.855 0 l-2.0508 5.8203 l-5.9961 0 l10.391 -28.223 l7.168 0 l10.391 28.223 l-5.9961 0 z M169.74653125 29.277 l8.418 0 l-4.1992 -11.973 z"></path></g>
			</g>
		</svg>
	